<svg width="24" height="24" fill="none" xmlns="http://www.w3.org/2000/svg"><path d="M11.714 22.378l.32.277.327-.27c1.4-1.158 3.55-3.04 5.458-4.923.954-.942 1.853-1.89 2.57-2.753.705-.85 1.273-1.663 1.513-2.326 1.083-2.987.895-6.645-2.29-8.654-2.012-1.27-4.023-.94-5.481-.326a9.021 9.021 0 00-2.079 1.236l-.088-.076a14.2 14.2 0 00-1.057-.821 9.202 9.202 0 00-1.432-.837C8.97 2.675 8.412 2.5 7.87 2.5c-1.672 0-3.859.683-5.109 2.522-1.68 2.473-1.68 6.15 0 8.623.663.974 2.315 2.644 4.06 4.299a160.233 160.233 0 004.894 4.434z" fill="#fff" stroke="#2C2C2C"/></svg>