<svg width="24" height="24" fill="none" xmlns="http://www.w3.org/2000/svg"><path fill-rule="evenodd" clip-rule="evenodd" d="M5 5l7-3 7 3v7.5C18 20 12 21 12 21s-6-1-7-8.5V5zm8.133 4.077l-.694-1.272a.5.5 0 00-.878 0l-.694 1.272a.5.5 0 01-.346.252l-1.424.266a.5.5 0 00-.271.835l.995 1.053a.5.5 0 01.132.407l-.186 1.437a.5.5 0 00.71.516l1.309-.621a.5.5 0 01.428 0l1.309.62a.5.5 0 00.71-.515l-.186-1.437a.5.5 0 01.132-.407l.995-1.053a.5.5 0 00-.27-.835l-1.425-.266a.5.5 0 01-.346-.252z" fill="#C4C4C4"/></svg>